<svg xmlns="http://www.w3.org/2000/svg" width="742.753" height="742.753" viewBox="0 0 196.52 196.52"><g style="display:inline"><path d="M181.13 275.137a68.9 68.9 0 0 1-29.464 29.328l161.758 162.389 38.998-19.764zm213.364 214.187-38.998 19.764 81.963 82.283a68.9 68.9 0 0 1 29.47-29.332zM581.646 339.39 490.07 385.8l6.752 43.19 103.616-52.513a68.9 68.9 0 0 1-18.792-37.086m-144.738 73.352L220.383 522.477a68.9 68.9 0 0 1 18.795 37.09L443.66 455.933zM367.275 142.438l-104.48 203.97 30.848 30.967 110.623-215.957a68.9 68.9 0 0 1-36.99-18.98M235.621 399.459 182.7 502.773a68.9 68.9 0 0 1 36.987 18.979l46.78-91.328zM150.768 304.918a68.9 68.9 0 0 1-34.416 7.195 69 69 0 0 1-6.65-.695l30.902 197.662a68.9 68.9 0 0 1 34.416-7.195 69 69 0 0 1 6.646.695zM239.342 560.545a69 69 0 0 1 .72 13.877 68.9 68.9 0 0 1-7.267 27.18l197.629 31.712a69 69 0 0 1-.723-13.878 68.9 68.9 0 0 1 7.27-27.178zM601.133 377.2 509.914 555.28a68.9 68.9 0 0 1 36.994 18.983l91.217-178.08a68.9 68.9 0 0 1-36.992-18.985M476.723 125.33a68.9 68.9 0 0 1-29.471 29.332l141.266 141.81a68.9 68.9 0 0 1 29.468-29.331zM347.787 104.63 169.211 195.13a68.9 68.9 0 0 1 18.793 37.086l178.574-90.502a68.9 68.9 0 0 1-18.79-37.082M446.926 154.826a68.9 68.9 0 0 1-34.983 7.483 69 69 0 0 1-6.029-.633l15.818 101.29 43.163 6.927zm-16 167.028 37.4 239.482a68.9 68.9 0 0 1 33.914-6.943 69 69 0 0 1 7.207.79L474.09 328.778zM188.13 232.975a69 69 0 0 1 .759 14.095 68.9 68.9 0 0 1-7.16 26.983l101.369 16.281 19.923-38.908zm173.737 27.9-19.926 38.912 239.514 38.467a69 69 0 0 1-.695-13.719 68.9 68.9 0 0 1 7.35-27.324z" style="color:#fff;font-style:normal;font-variant:normal;font-weight:400;font-stretch:normal;font-size:medium;line-height:normal;font-family:sans-serif;font-variant-ligatures:normal;font-variant-position:normal;font-variant-caps:normal;font-variant-numeric:normal;font-variant-alternates:normal;font-feature-settings:normal;text-indent:0;text-align:start;text-decoration:none;text-decoration-line:none;text-decoration-style:solid;text-decoration-color:#fff;letter-spacing:normal;word-spacing:normal;text-transform:none;writing-mode:lr-tb;direction:ltr;text-orientation:mixed;dominant-baseline:auto;baseline-shift:baseline;text-anchor:start;white-space:normal;shape-padding:0;clip-rule:nonzero;display:inline;overflow:visible;visibility:visible;opacity:1;isolation:auto;mix-blend-mode:normal;color-interpolation:sRGB;color-interpolation-filters:linearRGB;solid-color:#fff;solid-opacity:1;vector-effect:none;fill:#fff;fill-opacity:1;fill-rule:nonzero;stroke:none;stroke-width:41.5748024;stroke-linecap:butt;stroke-linejoin:miter;stroke-miterlimit:4;stroke-dasharray:none;stroke-dashoffset:0;stroke-opacity:1;color-rendering:auto;image-rendering:auto;shape-rendering:auto;text-rendering:auto" transform="scale(.26458)"/></g><g style="display:inline;opacity:1" transform="rotate(3.118 600.365 106.46)"><circle cx="106.266" cy="51.536" r="16.571" style="fill:#fff;fill-opacity:.99596773;stroke:none;stroke-width:.26458332;stroke-opacity:.96078431"/><circle cx="171.428" cy="110.193" r="16.571" style="fill:#fff;fill-opacity:.99596773;stroke:none;stroke-width:.26458332;stroke-opacity:.96078431"/><circle cx="135.764" cy="190.277" r="16.571" style="fill:#fff;fill-opacity:.99596773;stroke:none;stroke-width:.26458332;stroke-opacity:.96078431"/><circle cx="48.559" cy="181.114" r="16.571" style="fill:#fff;fill-opacity:.99596773;stroke:none;stroke-width:.26458332;stroke-opacity:.96078431"/><circle cx="30.329" cy="95.367" r="16.571" style="fill:#fff;fill-opacity:.99596773;stroke:none;stroke-width:.26458332;stroke-opacity:.96078431"/></g></svg>